<?xml version="1.0" encoding="utf-8" standalone="no"?>
<!DOCTYPE svg PUBLIC "-//W3C//DTD SVG 1.1//EN"
  "http://www.w3.org/Graphics/SVG/1.1/DTD/svg11.dtd">
<svg xmlns:xlink="http://www.w3.org/1999/xlink" width="720pt" height="1152pt" viewBox="0 0 720 1152" xmlns="http://www.w3.org/2000/svg" version="1.1">
 <metadata>
  <rdf:RDF xmlns:dc="http://purl.org/dc/elements/1.1/" xmlns:cc="http://creativecommons.org/ns#" xmlns:rdf="http://www.w3.org/1999/02/22-rdf-syntax-ns#">
   <cc:Work>
    <dc:type rdf:resource="http://purl.org/dc/dcmitype/StillImage"/>
    <dc:date>2024-03-27T14:26:57.618166</dc:date>
    <dc:format>image/svg+xml</dc:format>
    <dc:creator>
     <cc:Agent>
      <dc:title>Matplotlib v3.7.3, https://matplotlib.org/</dc:title>
     </cc:Agent>
    </dc:creator>
   </cc:Work>
  </rdf:RDF>
 </metadata>
 <defs>
  <style type="text/css">*{stroke-linejoin: round; stroke-linecap: butt}</style>
 </defs>
 <g id="figure_1">
  <g id="patch_1">
   <path d="M 0 1152 
L 720 1152 
L 720 0 
L 0 0 
z
" style="fill: #ffffff"/>
  </g>
  <g id="axes_1">
   <g id="patch_2">
    <path d="M 90 371.671579 
L 648 371.671579 
L 648 138.24 
L 90 138.24 
z
" style="fill: #ffffff"/>
   </g>
   <g id="patch_3">
    <path d="M 115.363636 371.671579 
L 129.07371 371.671579 
L 129.07371 174.086777 
L 115.363636 174.086777 
z
" clip-path="url(#p4c6321043a)" style="fill: #87ceeb; opacity: 0.5"/>
   </g>
   <g id="patch_4">
    <path d="M 183.914005 371.671579 
L 197.624079 371.671579 
L 197.624079 200.133242 
L 183.914005 200.133242 
z
" clip-path="url(#p4c6321043a)" style="fill: #87ceeb; opacity: 0.5"/>
   </g>
   <g id="patch_5">
    <path d="M 252.464373 371.671579 
L 266.174447 371.671579 
L 266.174447 164.87843 
L 252.464373 164.87843 
z
" clip-path="url(#p4c6321043a)" style="fill: #87ceeb; opacity: 0.5"/>
   </g>
   <g id="patch_6">
    <path d="M 321.014742 371.671579 
L 334.724816 371.671579 
L 334.724816 149.618885 
L 321.014742 149.618885 
z
" clip-path="url(#p4c6321043a)" style="fill: #87ceeb; opacity: 0.5"/>
   </g>
   <g id="patch_7">
    <path d="M 389.565111 371.671579 
L 403.275184 371.671579 
L 403.275184 149.355789 
L 389.565111 149.355789 
z
" clip-path="url(#p4c6321043a)" style="fill: #87ceeb; opacity: 0.5"/>
   </g>
   <g id="patch_8">
    <path d="M 458.115479 371.671579 
L 471.825553 371.671579 
L 471.825553 190.135609 
L 458.115479 190.135609 
z
" clip-path="url(#p4c6321043a)" style="fill: #87ceeb; opacity: 0.5"/>
   </g>
   <g id="patch_9">
    <path d="M 526.665848 371.671579 
L 540.375921 371.671579 
L 540.375921 252.489268 
L 526.665848 252.489268 
z
" clip-path="url(#p4c6321043a)" style="fill: #87ceeb; opacity: 0.5"/>
   </g>
   <g id="patch_10">
    <path d="M 595.216216 371.671579 
L 608.92629 371.671579 
L 608.92629 153.039128 
L 595.216216 153.039128 
z
" clip-path="url(#p4c6321043a)" style="fill: #87ceeb; opacity: 0.5"/>
   </g>
   <g id="patch_11">
    <path d="M 129.07371 371.671579 
L 142.783784 371.671579 
L 142.783784 296.163139 
L 129.07371 296.163139 
z
" clip-path="url(#p4c6321043a)" style="fill: #fa8072; opacity: 0.5"/>
   </g>
   <g id="patch_12">
    <path d="M 197.624079 371.671579 
L 211.334152 371.671579 
L 211.334152 312.211971 
L 197.624079 312.211971 
z
" clip-path="url(#p4c6321043a)" style="fill: #fa8072; opacity: 0.5"/>
   </g>
   <g id="patch_13">
    <path d="M 266.174447 371.671579 
L 279.884521 371.671579 
L 279.884521 293.532183 
L 266.174447 293.532183 
z
" clip-path="url(#p4c6321043a)" style="fill: #fa8072; opacity: 0.5"/>
   </g>
   <g id="patch_14">
    <path d="M 334.724816 371.671579 
L 348.434889 371.671579 
L 348.434889 272.74763 
L 334.724816 272.74763 
z
" clip-path="url(#p4c6321043a)" style="fill: #fa8072; opacity: 0.5"/>
   </g>
   <g id="patch_15">
    <path d="M 403.275184 371.671579 
L 416.985258 371.671579 
L 416.985258 283.271454 
L 403.275184 283.271454 
z
" clip-path="url(#p4c6321043a)" style="fill: #fa8072; opacity: 0.5"/>
   </g>
   <g id="patch_16">
    <path d="M 471.825553 371.671579 
L 485.535627 371.671579 
L 485.535627 303.003625 
L 471.825553 303.003625 
z
" clip-path="url(#p4c6321043a)" style="fill: #fa8072; opacity: 0.5"/>
   </g>
   <g id="patch_17">
    <path d="M 540.375921 371.671579 
L 554.085995 371.671579 
L 554.085995 318.000075 
L 540.375921 318.000075 
z
" clip-path="url(#p4c6321043a)" style="fill: #fa8072; opacity: 0.5"/>
   </g>
   <g id="patch_18">
    <path d="M 608.92629 371.671579 
L 622.636364 371.671579 
L 622.636364 292.216705 
L 608.92629 292.216705 
z
" clip-path="url(#p4c6321043a)" style="fill: #fa8072; opacity: 0.5"/>
   </g>
   <g id="matplotlib.axis_1">
    <g id="xtick_1">
     <g id="line2d_1">
      <defs>
       <path id="mff3641009a" d="M 0 0 
L 0 3.5 
" style="stroke: #000000; stroke-width: 0.8"/>
      </defs>
      <g>
       <use xlink:href="#mff3641009a" x="129.07371" y="371.671579" style="stroke: #000000; stroke-width: 0.8"/>
      </g>
     </g>
     <g id="text_1">
      <!-- Overall -->
      <g transform="translate(116.252317 415.444667) rotate(-45) scale(0.12 -0.12)">
       <defs>
        <path id="DejaVuSans-4f" d="M 2522 4238 
Q 1834 4238 1429 3725 
Q 1025 3213 1025 2328 
Q 1025 1447 1429 934 
Q 1834 422 2522 422 
Q 3209 422 3611 934 
Q 4013 1447 4013 2328 
Q 4013 3213 3611 3725 
Q 3209 4238 2522 4238 
z
M 2522 4750 
Q 3503 4750 4090 4092 
Q 4678 3434 4678 2328 
Q 4678 1225 4090 567 
Q 3503 -91 2522 -91 
Q 1538 -91 948 565 
Q 359 1222 359 2328 
Q 359 3434 948 4092 
Q 1538 4750 2522 4750 
z
" transform="scale(0.015625)"/>
        <path id="DejaVuSans-76" d="M 191 3500 
L 800 3500 
L 1894 563 
L 2988 3500 
L 3597 3500 
L 2284 0 
L 1503 0 
L 191 3500 
z
" transform="scale(0.015625)"/>
        <path id="DejaVuSans-65" d="M 3597 1894 
L 3597 1613 
L 953 1613 
Q 991 1019 1311 708 
Q 1631 397 2203 397 
Q 2534 397 2845 478 
Q 3156 559 3463 722 
L 3463 178 
Q 3153 47 2828 -22 
Q 2503 -91 2169 -91 
Q 1331 -91 842 396 
Q 353 884 353 1716 
Q 353 2575 817 3079 
Q 1281 3584 2069 3584 
Q 2775 3584 3186 3129 
Q 3597 2675 3597 1894 
z
M 3022 2063 
Q 3016 2534 2758 2815 
Q 2500 3097 2075 3097 
Q 1594 3097 1305 2825 
Q 1016 2553 972 2059 
L 3022 2063 
z
" transform="scale(0.015625)"/>
        <path id="DejaVuSans-72" d="M 2631 2963 
Q 2534 3019 2420 3045 
Q 2306 3072 2169 3072 
Q 1681 3072 1420 2755 
Q 1159 2438 1159 1844 
L 1159 0 
L 581 0 
L 581 3500 
L 1159 3500 
L 1159 2956 
Q 1341 3275 1631 3429 
Q 1922 3584 2338 3584 
Q 2397 3584 2469 3576 
Q 2541 3569 2628 3553 
L 2631 2963 
z
" transform="scale(0.015625)"/>
        <path id="DejaVuSans-61" d="M 2194 1759 
Q 1497 1759 1228 1600 
Q 959 1441 959 1056 
Q 959 750 1161 570 
Q 1363 391 1709 391 
Q 2188 391 2477 730 
Q 2766 1069 2766 1631 
L 2766 1759 
L 2194 1759 
z
M 3341 1997 
L 3341 0 
L 2766 0 
L 2766 531 
Q 2569 213 2275 61 
Q 1981 -91 1556 -91 
Q 1019 -91 701 211 
Q 384 513 384 1019 
Q 384 1609 779 1909 
Q 1175 2209 1959 2209 
L 2766 2209 
L 2766 2266 
Q 2766 2663 2505 2880 
Q 2244 3097 1772 3097 
Q 1472 3097 1187 3025 
Q 903 2953 641 2809 
L 641 3341 
Q 956 3463 1253 3523 
Q 1550 3584 1831 3584 
Q 2591 3584 2966 3190 
Q 3341 2797 3341 1997 
z
" transform="scale(0.015625)"/>
        <path id="DejaVuSans-6c" d="M 603 4863 
L 1178 4863 
L 1178 0 
L 603 0 
L 603 4863 
z
" transform="scale(0.015625)"/>
       </defs>
       <use xlink:href="#DejaVuSans-4f"/>
       <use xlink:href="#DejaVuSans-76" x="78.710938"/>
       <use xlink:href="#DejaVuSans-65" x="137.890625"/>
       <use xlink:href="#DejaVuSans-72" x="199.414062"/>
       <use xlink:href="#DejaVuSans-61" x="240.527344"/>
       <use xlink:href="#DejaVuSans-6c" x="301.806641"/>
       <use xlink:href="#DejaVuSans-6c" x="329.589844"/>
      </g>
     </g>
    </g>
    <g id="xtick_2">
     <g id="line2d_2">
      <g>
       <use xlink:href="#mff3641009a" x="197.624079" y="371.671579" style="stroke: #000000; stroke-width: 0.8"/>
      </g>
     </g>
     <g id="text_2">
      <!-- &lt;45 -->
      <g transform="translate(191.011525 403.026988) rotate(-45) scale(0.12 -0.12)">
       <defs>
        <path id="DejaVuSans-3c" d="M 4684 3150 
L 1459 2003 
L 4684 863 
L 4684 294 
L 678 1747 
L 678 2266 
L 4684 3719 
L 4684 3150 
z
" transform="scale(0.015625)"/>
        <path id="DejaVuSans-34" d="M 2419 4116 
L 825 1625 
L 2419 1625 
L 2419 4116 
z
M 2253 4666 
L 3047 4666 
L 3047 1625 
L 3713 1625 
L 3713 1100 
L 3047 1100 
L 3047 0 
L 2419 0 
L 2419 1100 
L 313 1100 
L 313 1709 
L 2253 4666 
z
" transform="scale(0.015625)"/>
        <path id="DejaVuSans-35" d="M 691 4666 
L 3169 4666 
L 3169 4134 
L 1269 4134 
L 1269 2991 
Q 1406 3038 1543 3061 
Q 1681 3084 1819 3084 
Q 2600 3084 3056 2656 
Q 3513 2228 3513 1497 
Q 3513 744 3044 326 
Q 2575 -91 1722 -91 
Q 1428 -91 1123 -41 
Q 819 9 494 109 
L 494 744 
Q 775 591 1075 516 
Q 1375 441 1709 441 
Q 2250 441 2565 725 
Q 2881 1009 2881 1497 
Q 2881 1984 2565 2268 
Q 2250 2553 1709 2553 
Q 1456 2553 1204 2497 
Q 953 2441 691 2322 
L 691 4666 
z
" transform="scale(0.015625)"/>
       </defs>
       <use xlink:href="#DejaVuSans-3c"/>
       <use xlink:href="#DejaVuSans-34" x="83.789062"/>
       <use xlink:href="#DejaVuSans-35" x="147.412109"/>
      </g>
     </g>
    </g>
    <g id="xtick_3">
     <g id="line2d_3">
      <g>
       <use xlink:href="#mff3641009a" x="266.174447" y="371.671579" style="stroke: #000000; stroke-width: 0.8"/>
      </g>
     </g>
     <g id="text_3">
      <!-- 45-64 -->
      <g transform="translate(256.187669 409.775438) rotate(-45) scale(0.12 -0.12)">
       <defs>
        <path id="DejaVuSans-2d" d="M 313 2009 
L 1997 2009 
L 1997 1497 
L 313 1497 
L 313 2009 
z
" transform="scale(0.015625)"/>
        <path id="DejaVuSans-36" d="M 2113 2584 
Q 1688 2584 1439 2293 
Q 1191 2003 1191 1497 
Q 1191 994 1439 701 
Q 1688 409 2113 409 
Q 2538 409 2786 701 
Q 3034 994 3034 1497 
Q 3034 2003 2786 2293 
Q 2538 2584 2113 2584 
z
M 3366 4563 
L 3366 3988 
Q 3128 4100 2886 4159 
Q 2644 4219 2406 4219 
Q 1781 4219 1451 3797 
Q 1122 3375 1075 2522 
Q 1259 2794 1537 2939 
Q 1816 3084 2150 3084 
Q 2853 3084 3261 2657 
Q 3669 2231 3669 1497 
Q 3669 778 3244 343 
Q 2819 -91 2113 -91 
Q 1303 -91 875 529 
Q 447 1150 447 2328 
Q 447 3434 972 4092 
Q 1497 4750 2381 4750 
Q 2619 4750 2861 4703 
Q 3103 4656 3366 4563 
z
" transform="scale(0.015625)"/>
       </defs>
       <use xlink:href="#DejaVuSans-34"/>
       <use xlink:href="#DejaVuSans-35" x="63.623047"/>
       <use xlink:href="#DejaVuSans-2d" x="127.246094"/>
       <use xlink:href="#DejaVuSans-36" x="163.330078"/>
       <use xlink:href="#DejaVuSans-34" x="226.953125"/>
      </g>
     </g>
    </g>
    <g id="xtick_4">
     <g id="line2d_4">
      <g>
       <use xlink:href="#mff3641009a" x="334.724816" y="371.671579" style="stroke: #000000; stroke-width: 0.8"/>
      </g>
     </g>
     <g id="text_4">
      <!-- &gt;=65 -->
      <g transform="translate(324.557062 410.137389) rotate(-45) scale(0.12 -0.12)">
       <defs>
        <path id="DejaVuSans-3e" d="M 678 3150 
L 678 3719 
L 4684 2266 
L 4684 1747 
L 678 294 
L 678 863 
L 3897 2003 
L 678 3150 
z
" transform="scale(0.015625)"/>
        <path id="DejaVuSans-3d" d="M 678 2906 
L 4684 2906 
L 4684 2381 
L 678 2381 
L 678 2906 
z
M 678 1631 
L 4684 1631 
L 4684 1100 
L 678 1100 
L 678 1631 
z
" transform="scale(0.015625)"/>
       </defs>
       <use xlink:href="#DejaVuSans-3e"/>
       <use xlink:href="#DejaVuSans-3d" x="83.789062"/>
       <use xlink:href="#DejaVuSans-36" x="167.578125"/>
       <use xlink:href="#DejaVuSans-35" x="231.201172"/>
      </g>
     </g>
    </g>
    <g id="xtick_5">
     <g id="line2d_5">
      <g>
       <use xlink:href="#mff3641009a" x="403.275184" y="371.671579" style="stroke: #000000; stroke-width: 0.8"/>
      </g>
     </g>
     <g id="text_5">
      <!-- Male -->
      <g transform="translate(395.566836 405.218577) rotate(-45) scale(0.12 -0.12)">
       <defs>
        <path id="DejaVuSans-4d" d="M 628 4666 
L 1569 4666 
L 2759 1491 
L 3956 4666 
L 4897 4666 
L 4897 0 
L 4281 0 
L 4281 4097 
L 3078 897 
L 2444 897 
L 1241 4097 
L 1241 0 
L 628 0 
L 628 4666 
z
" transform="scale(0.015625)"/>
       </defs>
       <use xlink:href="#DejaVuSans-4d"/>
       <use xlink:href="#DejaVuSans-61" x="86.279297"/>
       <use xlink:href="#DejaVuSans-6c" x="147.558594"/>
       <use xlink:href="#DejaVuSans-65" x="175.341797"/>
      </g>
     </g>
    </g>
    <g id="xtick_6">
     <g id="line2d_6">
      <g>
       <use xlink:href="#mff3641009a" x="471.825553" y="371.671579" style="stroke: #000000; stroke-width: 0.8"/>
      </g>
     </g>
     <g id="text_6">
      <!-- Female -->
      <g transform="translate(458.827825 415.797337) rotate(-45) scale(0.12 -0.12)">
       <defs>
        <path id="DejaVuSans-46" d="M 628 4666 
L 3309 4666 
L 3309 4134 
L 1259 4134 
L 1259 2759 
L 3109 2759 
L 3109 2228 
L 1259 2228 
L 1259 0 
L 628 0 
L 628 4666 
z
" transform="scale(0.015625)"/>
        <path id="DejaVuSans-6d" d="M 3328 2828 
Q 3544 3216 3844 3400 
Q 4144 3584 4550 3584 
Q 5097 3584 5394 3201 
Q 5691 2819 5691 2113 
L 5691 0 
L 5113 0 
L 5113 2094 
Q 5113 2597 4934 2840 
Q 4756 3084 4391 3084 
Q 3944 3084 3684 2787 
Q 3425 2491 3425 1978 
L 3425 0 
L 2847 0 
L 2847 2094 
Q 2847 2600 2669 2842 
Q 2491 3084 2119 3084 
Q 1678 3084 1418 2786 
Q 1159 2488 1159 1978 
L 1159 0 
L 581 0 
L 581 3500 
L 1159 3500 
L 1159 2956 
Q 1356 3278 1631 3431 
Q 1906 3584 2284 3584 
Q 2666 3584 2933 3390 
Q 3200 3197 3328 2828 
z
" transform="scale(0.015625)"/>
       </defs>
       <use xlink:href="#DejaVuSans-46"/>
       <use xlink:href="#DejaVuSans-65" x="52.019531"/>
       <use xlink:href="#DejaVuSans-6d" x="113.542969"/>
       <use xlink:href="#DejaVuSans-61" x="210.955078"/>
       <use xlink:href="#DejaVuSans-6c" x="272.234375"/>
       <use xlink:href="#DejaVuSans-65" x="300.017578"/>
      </g>
     </g>
    </g>
    <g id="xtick_7">
     <g id="line2d_7">
      <g>
       <use xlink:href="#mff3641009a" x="540.375921" y="371.671579" style="stroke: #000000; stroke-width: 0.8"/>
      </g>
     </g>
     <g id="text_7">
      <!-- Fully -->
      <g transform="translate(528.202459 418.156643) rotate(-45) scale(0.12 -0.12)">
       <defs>
        <path id="DejaVuSans-75" d="M 544 1381 
L 544 3500 
L 1119 3500 
L 1119 1403 
Q 1119 906 1312 657 
Q 1506 409 1894 409 
Q 2359 409 2629 706 
Q 2900 1003 2900 1516 
L 2900 3500 
L 3475 3500 
L 3475 0 
L 2900 0 
L 2900 538 
Q 2691 219 2414 64 
Q 2138 -91 1772 -91 
Q 1169 -91 856 284 
Q 544 659 544 1381 
z
M 1991 3584 
L 1991 3584 
z
" transform="scale(0.015625)"/>
        <path id="DejaVuSans-79" d="M 2059 -325 
Q 1816 -950 1584 -1140 
Q 1353 -1331 966 -1331 
L 506 -1331 
L 506 -850 
L 844 -850 
Q 1081 -850 1212 -737 
Q 1344 -625 1503 -206 
L 1606 56 
L 191 3500 
L 800 3500 
L 1894 763 
L 2988 3500 
L 3597 3500 
L 2059 -325 
z
" transform="scale(0.015625)"/>
       </defs>
       <use xlink:href="#DejaVuSans-46"/>
       <use xlink:href="#DejaVuSans-75" x="52.019531"/>
       <use xlink:href="#DejaVuSans-6c" x="115.398438"/>
       <use xlink:href="#DejaVuSans-6c" x="143.181641"/>
       <use xlink:href="#DejaVuSans-79" x="170.964844"/>
      </g>
      <!-- Vaccinated -->
      <g transform="translate(524.194622 441.167798) rotate(-45) scale(0.12 -0.12)">
       <defs>
        <path id="DejaVuSans-56" d="M 1831 0 
L 50 4666 
L 709 4666 
L 2188 738 
L 3669 4666 
L 4325 4666 
L 2547 0 
L 1831 0 
z
" transform="scale(0.015625)"/>
        <path id="DejaVuSans-63" d="M 3122 3366 
L 3122 2828 
Q 2878 2963 2633 3030 
Q 2388 3097 2138 3097 
Q 1578 3097 1268 2742 
Q 959 2388 959 1747 
Q 959 1106 1268 751 
Q 1578 397 2138 397 
Q 2388 397 2633 464 
Q 2878 531 3122 666 
L 3122 134 
Q 2881 22 2623 -34 
Q 2366 -91 2075 -91 
Q 1284 -91 818 406 
Q 353 903 353 1747 
Q 353 2603 823 3093 
Q 1294 3584 2113 3584 
Q 2378 3584 2631 3529 
Q 2884 3475 3122 3366 
z
" transform="scale(0.015625)"/>
        <path id="DejaVuSans-69" d="M 603 3500 
L 1178 3500 
L 1178 0 
L 603 0 
L 603 3500 
z
M 603 4863 
L 1178 4863 
L 1178 4134 
L 603 4134 
L 603 4863 
z
" transform="scale(0.015625)"/>
        <path id="DejaVuSans-6e" d="M 3513 2113 
L 3513 0 
L 2938 0 
L 2938 2094 
Q 2938 2591 2744 2837 
Q 2550 3084 2163 3084 
Q 1697 3084 1428 2787 
Q 1159 2491 1159 1978 
L 1159 0 
L 581 0 
L 581 3500 
L 1159 3500 
L 1159 2956 
Q 1366 3272 1645 3428 
Q 1925 3584 2291 3584 
Q 2894 3584 3203 3211 
Q 3513 2838 3513 2113 
z
" transform="scale(0.015625)"/>
        <path id="DejaVuSans-74" d="M 1172 4494 
L 1172 3500 
L 2356 3500 
L 2356 3053 
L 1172 3053 
L 1172 1153 
Q 1172 725 1289 603 
Q 1406 481 1766 481 
L 2356 481 
L 2356 0 
L 1766 0 
Q 1100 0 847 248 
Q 594 497 594 1153 
L 594 3053 
L 172 3053 
L 172 3500 
L 594 3500 
L 594 4494 
L 1172 4494 
z
" transform="scale(0.015625)"/>
        <path id="DejaVuSans-64" d="M 2906 2969 
L 2906 4863 
L 3481 4863 
L 3481 0 
L 2906 0 
L 2906 525 
Q 2725 213 2448 61 
Q 2172 -91 1784 -91 
Q 1150 -91 751 415 
Q 353 922 353 1747 
Q 353 2572 751 3078 
Q 1150 3584 1784 3584 
Q 2172 3584 2448 3432 
Q 2725 3281 2906 2969 
z
M 947 1747 
Q 947 1113 1208 752 
Q 1469 391 1925 391 
Q 2381 391 2643 752 
Q 2906 1113 2906 1747 
Q 2906 2381 2643 2742 
Q 2381 3103 1925 3103 
Q 1469 3103 1208 2742 
Q 947 2381 947 1747 
z
" transform="scale(0.015625)"/>
       </defs>
       <use xlink:href="#DejaVuSans-56"/>
       <use xlink:href="#DejaVuSans-61" x="60.658203"/>
       <use xlink:href="#DejaVuSans-63" x="121.9375"/>
       <use xlink:href="#DejaVuSans-63" x="176.917969"/>
       <use xlink:href="#DejaVuSans-69" x="231.898438"/>
       <use xlink:href="#DejaVuSans-6e" x="259.681641"/>
       <use xlink:href="#DejaVuSans-61" x="323.060547"/>
       <use xlink:href="#DejaVuSans-74" x="384.339844"/>
       <use xlink:href="#DejaVuSans-65" x="423.548828"/>
       <use xlink:href="#DejaVuSans-64" x="485.072266"/>
      </g>
     </g>
    </g>
    <g id="xtick_8">
     <g id="line2d_8">
      <g>
       <use xlink:href="#mff3641009a" x="608.92629" y="371.671579" style="stroke: #000000; stroke-width: 0.8"/>
      </g>
     </g>
     <g id="text_8">
      <!-- Partially -->
      <g transform="translate(589.495261 425.41421) rotate(-45) scale(0.12 -0.12)">
       <defs>
        <path id="DejaVuSans-50" d="M 1259 4147 
L 1259 2394 
L 2053 2394 
Q 2494 2394 2734 2622 
Q 2975 2850 2975 3272 
Q 2975 3691 2734 3919 
Q 2494 4147 2053 4147 
L 1259 4147 
z
M 628 4666 
L 2053 4666 
Q 2838 4666 3239 4311 
Q 3641 3956 3641 3272 
Q 3641 2581 3239 2228 
Q 2838 1875 2053 1875 
L 1259 1875 
L 1259 0 
L 628 0 
L 628 4666 
z
" transform="scale(0.015625)"/>
       </defs>
       <use xlink:href="#DejaVuSans-50"/>
       <use xlink:href="#DejaVuSans-61" x="55.802734"/>
       <use xlink:href="#DejaVuSans-72" x="117.082031"/>
       <use xlink:href="#DejaVuSans-74" x="158.195312"/>
       <use xlink:href="#DejaVuSans-69" x="197.404297"/>
       <use xlink:href="#DejaVuSans-61" x="225.1875"/>
       <use xlink:href="#DejaVuSans-6c" x="286.466797"/>
       <use xlink:href="#DejaVuSans-6c" x="314.25"/>
       <use xlink:href="#DejaVuSans-79" x="342.033203"/>
      </g>
      <!-- Vaccinated -->
      <g transform="translate(592.744991 441.167798) rotate(-45) scale(0.12 -0.12)">
       <use xlink:href="#DejaVuSans-56"/>
       <use xlink:href="#DejaVuSans-61" x="60.658203"/>
       <use xlink:href="#DejaVuSans-63" x="121.9375"/>
       <use xlink:href="#DejaVuSans-63" x="176.917969"/>
       <use xlink:href="#DejaVuSans-69" x="231.898438"/>
       <use xlink:href="#DejaVuSans-6e" x="259.681641"/>
       <use xlink:href="#DejaVuSans-61" x="323.060547"/>
       <use xlink:href="#DejaVuSans-74" x="384.339844"/>
       <use xlink:href="#DejaVuSans-65" x="423.548828"/>
       <use xlink:href="#DejaVuSans-64" x="485.072266"/>
      </g>
     </g>
    </g>
   </g>
   <g id="matplotlib.axis_2">
    <g id="ytick_1">
     <g id="line2d_9">
      <path d="M 90 371.671579 
L 648 371.671579 
" clip-path="url(#p4c6321043a)" style="fill: none; stroke: #b0b0b0; stroke-width: 0.8; stroke-linecap: square"/>
     </g>
     <g id="line2d_10">
      <defs>
       <path id="m2b98c7eedf" d="M 0 0 
L -3.5 0 
" style="stroke: #000000; stroke-width: 0.8"/>
      </defs>
      <g>
       <use xlink:href="#m2b98c7eedf" x="90" y="371.671579" style="stroke: #000000; stroke-width: 0.8"/>
      </g>
     </g>
     <g id="text_9">
      <!-- 0 -->
      <g transform="translate(74.0925 376.990485) scale(0.14 -0.14)">
       <defs>
        <path id="DejaVuSans-30" d="M 2034 4250 
Q 1547 4250 1301 3770 
Q 1056 3291 1056 2328 
Q 1056 1369 1301 889 
Q 1547 409 2034 409 
Q 2525 409 2770 889 
Q 3016 1369 3016 2328 
Q 3016 3291 2770 3770 
Q 2525 4250 2034 4250 
z
M 2034 4750 
Q 2819 4750 3233 4129 
Q 3647 3509 3647 2328 
Q 3647 1150 3233 529 
Q 2819 -91 2034 -91 
Q 1250 -91 836 529 
Q 422 1150 422 2328 
Q 422 3509 836 4129 
Q 1250 4750 2034 4750 
z
" transform="scale(0.015625)"/>
       </defs>
       <use xlink:href="#DejaVuSans-30"/>
      </g>
     </g>
    </g>
    <g id="ytick_2">
     <g id="line2d_11">
      <path d="M 90 319.052457 
L 648 319.052457 
" clip-path="url(#p4c6321043a)" style="fill: none; stroke: #b0b0b0; stroke-width: 0.8; stroke-linecap: square"/>
     </g>
     <g id="line2d_12">
      <g>
       <use xlink:href="#m2b98c7eedf" x="90" y="319.052457" style="stroke: #000000; stroke-width: 0.8"/>
      </g>
     </g>
     <g id="text_10">
      <!-- 2 -->
      <g transform="translate(74.0925 324.371363) scale(0.14 -0.14)">
       <defs>
        <path id="DejaVuSans-32" d="M 1228 531 
L 3431 531 
L 3431 0 
L 469 0 
L 469 531 
Q 828 903 1448 1529 
Q 2069 2156 2228 2338 
Q 2531 2678 2651 2914 
Q 2772 3150 2772 3378 
Q 2772 3750 2511 3984 
Q 2250 4219 1831 4219 
Q 1534 4219 1204 4116 
Q 875 4013 500 3803 
L 500 4441 
Q 881 4594 1212 4672 
Q 1544 4750 1819 4750 
Q 2544 4750 2975 4387 
Q 3406 4025 3406 3419 
Q 3406 3131 3298 2873 
Q 3191 2616 2906 2266 
Q 2828 2175 2409 1742 
Q 1991 1309 1228 531 
z
" transform="scale(0.015625)"/>
       </defs>
       <use xlink:href="#DejaVuSans-32"/>
      </g>
     </g>
    </g>
    <g id="ytick_3">
     <g id="line2d_13">
      <path d="M 90 266.433335 
L 648 266.433335 
" clip-path="url(#p4c6321043a)" style="fill: none; stroke: #b0b0b0; stroke-width: 0.8; stroke-linecap: square"/>
     </g>
     <g id="line2d_14">
      <g>
       <use xlink:href="#m2b98c7eedf" x="90" y="266.433335" style="stroke: #000000; stroke-width: 0.8"/>
      </g>
     </g>
     <g id="text_11">
      <!-- 4 -->
      <g transform="translate(74.0925 271.752242) scale(0.14 -0.14)">
       <use xlink:href="#DejaVuSans-34"/>
      </g>
     </g>
    </g>
    <g id="ytick_4">
     <g id="line2d_15">
      <path d="M 90 213.814214 
L 648 213.814214 
" clip-path="url(#p4c6321043a)" style="fill: none; stroke: #b0b0b0; stroke-width: 0.8; stroke-linecap: square"/>
     </g>
     <g id="line2d_16">
      <g>
       <use xlink:href="#m2b98c7eedf" x="90" y="213.814214" style="stroke: #000000; stroke-width: 0.8"/>
      </g>
     </g>
     <g id="text_12">
      <!-- 6 -->
      <g transform="translate(74.0925 219.13312) scale(0.14 -0.14)">
       <use xlink:href="#DejaVuSans-36"/>
      </g>
     </g>
    </g>
    <g id="ytick_5">
     <g id="line2d_17">
      <path d="M 90 161.195092 
L 648 161.195092 
" clip-path="url(#p4c6321043a)" style="fill: none; stroke: #b0b0b0; stroke-width: 0.8; stroke-linecap: square"/>
     </g>
     <g id="line2d_18">
      <g>
       <use xlink:href="#m2b98c7eedf" x="90" y="161.195092" style="stroke: #000000; stroke-width: 0.8"/>
      </g>
     </g>
     <g id="text_13">
      <!-- 8 -->
      <g transform="translate(74.0925 166.513998) scale(0.14 -0.14)">
       <defs>
        <path id="DejaVuSans-38" d="M 2034 2216 
Q 1584 2216 1326 1975 
Q 1069 1734 1069 1313 
Q 1069 891 1326 650 
Q 1584 409 2034 409 
Q 2484 409 2743 651 
Q 3003 894 3003 1313 
Q 3003 1734 2745 1975 
Q 2488 2216 2034 2216 
z
M 1403 2484 
Q 997 2584 770 2862 
Q 544 3141 544 3541 
Q 544 4100 942 4425 
Q 1341 4750 2034 4750 
Q 2731 4750 3128 4425 
Q 3525 4100 3525 3541 
Q 3525 3141 3298 2862 
Q 3072 2584 2669 2484 
Q 3125 2378 3379 2068 
Q 3634 1759 3634 1313 
Q 3634 634 3220 271 
Q 2806 -91 2034 -91 
Q 1263 -91 848 271 
Q 434 634 434 1313 
Q 434 1759 690 2068 
Q 947 2378 1403 2484 
z
M 1172 3481 
Q 1172 3119 1398 2916 
Q 1625 2713 2034 2713 
Q 2441 2713 2670 2916 
Q 2900 3119 2900 3481 
Q 2900 3844 2670 4047 
Q 2441 4250 2034 4250 
Q 1625 4250 1398 4047 
Q 1172 3844 1172 3481 
z
" transform="scale(0.015625)"/>
       </defs>
       <use xlink:href="#DejaVuSans-38"/>
      </g>
     </g>
    </g>
    <g id="text_14">
     <!-- Mean LOS (days) -->
     <g transform="translate(67.180937 314.064227) rotate(-90) scale(0.14 -0.14)">
      <defs>
       <path id="DejaVuSans-20" transform="scale(0.015625)"/>
       <path id="DejaVuSans-4c" d="M 628 4666 
L 1259 4666 
L 1259 531 
L 3531 531 
L 3531 0 
L 628 0 
L 628 4666 
z
" transform="scale(0.015625)"/>
       <path id="DejaVuSans-53" d="M 3425 4513 
L 3425 3897 
Q 3066 4069 2747 4153 
Q 2428 4238 2131 4238 
Q 1616 4238 1336 4038 
Q 1056 3838 1056 3469 
Q 1056 3159 1242 3001 
Q 1428 2844 1947 2747 
L 2328 2669 
Q 3034 2534 3370 2195 
Q 3706 1856 3706 1288 
Q 3706 609 3251 259 
Q 2797 -91 1919 -91 
Q 1588 -91 1214 -16 
Q 841 59 441 206 
L 441 856 
Q 825 641 1194 531 
Q 1563 422 1919 422 
Q 2459 422 2753 634 
Q 3047 847 3047 1241 
Q 3047 1584 2836 1778 
Q 2625 1972 2144 2069 
L 1759 2144 
Q 1053 2284 737 2584 
Q 422 2884 422 3419 
Q 422 4038 858 4394 
Q 1294 4750 2059 4750 
Q 2388 4750 2728 4690 
Q 3069 4631 3425 4513 
z
" transform="scale(0.015625)"/>
       <path id="DejaVuSans-28" d="M 1984 4856 
Q 1566 4138 1362 3434 
Q 1159 2731 1159 2009 
Q 1159 1288 1364 580 
Q 1569 -128 1984 -844 
L 1484 -844 
Q 1016 -109 783 600 
Q 550 1309 550 2009 
Q 550 2706 781 3412 
Q 1013 4119 1484 4856 
L 1984 4856 
z
" transform="scale(0.015625)"/>
       <path id="DejaVuSans-73" d="M 2834 3397 
L 2834 2853 
Q 2591 2978 2328 3040 
Q 2066 3103 1784 3103 
Q 1356 3103 1142 2972 
Q 928 2841 928 2578 
Q 928 2378 1081 2264 
Q 1234 2150 1697 2047 
L 1894 2003 
Q 2506 1872 2764 1633 
Q 3022 1394 3022 966 
Q 3022 478 2636 193 
Q 2250 -91 1575 -91 
Q 1294 -91 989 -36 
Q 684 19 347 128 
L 347 722 
Q 666 556 975 473 
Q 1284 391 1588 391 
Q 1994 391 2212 530 
Q 2431 669 2431 922 
Q 2431 1156 2273 1281 
Q 2116 1406 1581 1522 
L 1381 1569 
Q 847 1681 609 1914 
Q 372 2147 372 2553 
Q 372 3047 722 3315 
Q 1072 3584 1716 3584 
Q 2034 3584 2315 3537 
Q 2597 3491 2834 3397 
z
" transform="scale(0.015625)"/>
       <path id="DejaVuSans-29" d="M 513 4856 
L 1013 4856 
Q 1481 4119 1714 3412 
Q 1947 2706 1947 2009 
Q 1947 1309 1714 600 
Q 1481 -109 1013 -844 
L 513 -844 
Q 928 -128 1133 580 
Q 1338 1288 1338 2009 
Q 1338 2731 1133 3434 
Q 928 4138 513 4856 
z
" transform="scale(0.015625)"/>
      </defs>
      <use xlink:href="#DejaVuSans-4d"/>
      <use xlink:href="#DejaVuSans-65" x="86.279297"/>
      <use xlink:href="#DejaVuSans-61" x="147.802734"/>
      <use xlink:href="#DejaVuSans-6e" x="209.082031"/>
      <use xlink:href="#DejaVuSans-20" x="272.460938"/>
      <use xlink:href="#DejaVuSans-4c" x="304.248047"/>
      <use xlink:href="#DejaVuSans-4f" x="356.335938"/>
      <use xlink:href="#DejaVuSans-53" x="435.046875"/>
      <use xlink:href="#DejaVuSans-20" x="498.523438"/>
      <use xlink:href="#DejaVuSans-28" x="530.310547"/>
      <use xlink:href="#DejaVuSans-64" x="569.324219"/>
      <use xlink:href="#DejaVuSans-61" x="632.800781"/>
      <use xlink:href="#DejaVuSans-79" x="694.080078"/>
      <use xlink:href="#DejaVuSans-73" x="753.259766"/>
      <use xlink:href="#DejaVuSans-29" x="805.359375"/>
     </g>
    </g>
   </g>
   <g id="patch_19">
    <path d="M 90 371.671579 
L 90 138.24 
" style="fill: none; stroke: #000000; stroke-width: 0.8; stroke-linejoin: miter; stroke-linecap: square"/>
   </g>
   <g id="patch_20">
    <path d="M 648 371.671579 
L 648 138.24 
" style="fill: none; stroke: #000000; stroke-width: 0.8; stroke-linejoin: miter; stroke-linecap: square"/>
   </g>
   <g id="patch_21">
    <path d="M 90 371.671579 
L 648 371.671579 
" style="fill: none; stroke: #000000; stroke-width: 0.8; stroke-linejoin: miter; stroke-linecap: square"/>
   </g>
   <g id="patch_22">
    <path d="M 90 138.24 
L 648 138.24 
" style="fill: none; stroke: #000000; stroke-width: 0.8; stroke-linejoin: miter; stroke-linecap: square"/>
   </g>
   <g id="text_15">
    <!-- Mean Length of Stay (LOS) for OUD vs No OUD -->
    <g transform="translate(228.725625 132.24) scale(0.12 -0.12)">
     <defs>
      <path id="DejaVuSans-67" d="M 2906 1791 
Q 2906 2416 2648 2759 
Q 2391 3103 1925 3103 
Q 1463 3103 1205 2759 
Q 947 2416 947 1791 
Q 947 1169 1205 825 
Q 1463 481 1925 481 
Q 2391 481 2648 825 
Q 2906 1169 2906 1791 
z
M 3481 434 
Q 3481 -459 3084 -895 
Q 2688 -1331 1869 -1331 
Q 1566 -1331 1297 -1286 
Q 1028 -1241 775 -1147 
L 775 -588 
Q 1028 -725 1275 -790 
Q 1522 -856 1778 -856 
Q 2344 -856 2625 -561 
Q 2906 -266 2906 331 
L 2906 616 
Q 2728 306 2450 153 
Q 2172 0 1784 0 
Q 1141 0 747 490 
Q 353 981 353 1791 
Q 353 2603 747 3093 
Q 1141 3584 1784 3584 
Q 2172 3584 2450 3431 
Q 2728 3278 2906 2969 
L 2906 3500 
L 3481 3500 
L 3481 434 
z
" transform="scale(0.015625)"/>
      <path id="DejaVuSans-68" d="M 3513 2113 
L 3513 0 
L 2938 0 
L 2938 2094 
Q 2938 2591 2744 2837 
Q 2550 3084 2163 3084 
Q 1697 3084 1428 2787 
Q 1159 2491 1159 1978 
L 1159 0 
L 581 0 
L 581 4863 
L 1159 4863 
L 1159 2956 
Q 1366 3272 1645 3428 
Q 1925 3584 2291 3584 
Q 2894 3584 3203 3211 
Q 3513 2838 3513 2113 
z
" transform="scale(0.015625)"/>
      <path id="DejaVuSans-6f" d="M 1959 3097 
Q 1497 3097 1228 2736 
Q 959 2375 959 1747 
Q 959 1119 1226 758 
Q 1494 397 1959 397 
Q 2419 397 2687 759 
Q 2956 1122 2956 1747 
Q 2956 2369 2687 2733 
Q 2419 3097 1959 3097 
z
M 1959 3584 
Q 2709 3584 3137 3096 
Q 3566 2609 3566 1747 
Q 3566 888 3137 398 
Q 2709 -91 1959 -91 
Q 1206 -91 779 398 
Q 353 888 353 1747 
Q 353 2609 779 3096 
Q 1206 3584 1959 3584 
z
" transform="scale(0.015625)"/>
      <path id="DejaVuSans-66" d="M 2375 4863 
L 2375 4384 
L 1825 4384 
Q 1516 4384 1395 4259 
Q 1275 4134 1275 3809 
L 1275 3500 
L 2222 3500 
L 2222 3053 
L 1275 3053 
L 1275 0 
L 697 0 
L 697 3053 
L 147 3053 
L 147 3500 
L 697 3500 
L 697 3744 
Q 697 4328 969 4595 
Q 1241 4863 1831 4863 
L 2375 4863 
z
" transform="scale(0.015625)"/>
      <path id="DejaVuSans-55" d="M 556 4666 
L 1191 4666 
L 1191 1831 
Q 1191 1081 1462 751 
Q 1734 422 2344 422 
Q 2950 422 3222 751 
Q 3494 1081 3494 1831 
L 3494 4666 
L 4128 4666 
L 4128 1753 
Q 4128 841 3676 375 
Q 3225 -91 2344 -91 
Q 1459 -91 1007 375 
Q 556 841 556 1753 
L 556 4666 
z
" transform="scale(0.015625)"/>
      <path id="DejaVuSans-44" d="M 1259 4147 
L 1259 519 
L 2022 519 
Q 2988 519 3436 956 
Q 3884 1394 3884 2338 
Q 3884 3275 3436 3711 
Q 2988 4147 2022 4147 
L 1259 4147 
z
M 628 4666 
L 1925 4666 
Q 3281 4666 3915 4102 
Q 4550 3538 4550 2338 
Q 4550 1131 3912 565 
Q 3275 0 1925 0 
L 628 0 
L 628 4666 
z
" transform="scale(0.015625)"/>
      <path id="DejaVuSans-4e" d="M 628 4666 
L 1478 4666 
L 3547 763 
L 3547 4666 
L 4159 4666 
L 4159 0 
L 3309 0 
L 1241 3903 
L 1241 0 
L 628 0 
L 628 4666 
z
" transform="scale(0.015625)"/>
     </defs>
     <use xlink:href="#DejaVuSans-4d"/>
     <use xlink:href="#DejaVuSans-65" x="86.279297"/>
     <use xlink:href="#DejaVuSans-61" x="147.802734"/>
     <use xlink:href="#DejaVuSans-6e" x="209.082031"/>
     <use xlink:href="#DejaVuSans-20" x="272.460938"/>
     <use xlink:href="#DejaVuSans-4c" x="304.248047"/>
     <use xlink:href="#DejaVuSans-65" x="358.210938"/>
     <use xlink:href="#DejaVuSans-6e" x="419.734375"/>
     <use xlink:href="#DejaVuSans-67" x="483.113281"/>
     <use xlink:href="#DejaVuSans-74" x="546.589844"/>
     <use xlink:href="#DejaVuSans-68" x="585.798828"/>
     <use xlink:href="#DejaVuSans-20" x="649.177734"/>
     <use xlink:href="#DejaVuSans-6f" x="680.964844"/>
     <use xlink:href="#DejaVuSans-66" x="742.146484"/>
     <use xlink:href="#DejaVuSans-20" x="777.351562"/>
     <use xlink:href="#DejaVuSans-53" x="809.138672"/>
     <use xlink:href="#DejaVuSans-74" x="872.615234"/>
     <use xlink:href="#DejaVuSans-61" x="911.824219"/>
     <use xlink:href="#DejaVuSans-79" x="973.103516"/>
     <use xlink:href="#DejaVuSans-20" x="1032.283203"/>
     <use xlink:href="#DejaVuSans-28" x="1064.070312"/>
     <use xlink:href="#DejaVuSans-4c" x="1103.083984"/>
     <use xlink:href="#DejaVuSans-4f" x="1155.171875"/>
     <use xlink:href="#DejaVuSans-53" x="1233.882812"/>
     <use xlink:href="#DejaVuSans-29" x="1297.359375"/>
     <use xlink:href="#DejaVuSans-20" x="1336.373047"/>
     <use xlink:href="#DejaVuSans-66" x="1368.160156"/>
     <use xlink:href="#DejaVuSans-6f" x="1403.365234"/>
     <use xlink:href="#DejaVuSans-72" x="1464.546875"/>
     <use xlink:href="#DejaVuSans-20" x="1505.660156"/>
     <use xlink:href="#DejaVuSans-4f" x="1537.447266"/>
     <use xlink:href="#DejaVuSans-55" x="1616.158203"/>
     <use xlink:href="#DejaVuSans-44" x="1689.351562"/>
     <use xlink:href="#DejaVuSans-20" x="1766.353516"/>
     <use xlink:href="#DejaVuSans-76" x="1798.140625"/>
     <use xlink:href="#DejaVuSans-73" x="1857.320312"/>
     <use xlink:href="#DejaVuSans-20" x="1909.419922"/>
     <use xlink:href="#DejaVuSans-4e" x="1941.207031"/>
     <use xlink:href="#DejaVuSans-6f" x="2016.011719"/>
     <use xlink:href="#DejaVuSans-20" x="2077.193359"/>
     <use xlink:href="#DejaVuSans-4f" x="2108.980469"/>
     <use xlink:href="#DejaVuSans-55" x="2187.691406"/>
     <use xlink:href="#DejaVuSans-44" x="2260.884766"/>
    </g>
   </g>
   <g id="legend_1">
    <g id="patch_23">
     <path d="M 97 105.566776 
L 168.66875 105.566776 
Q 170.66875 105.566776 170.66875 103.566776 
L 170.66875 75.210526 
Q 170.66875 73.210526 168.66875 73.210526 
L 97 73.210526 
Q 95 73.210526 95 75.210526 
L 95 103.566776 
Q 95 105.566776 97 105.566776 
z
" style="fill: #ffffff; opacity: 0.8; stroke: #cccccc; stroke-linejoin: miter"/>
    </g>
    <g id="patch_24">
     <path d="M 99 84.808964 
L 119 84.808964 
L 119 77.808964 
L 99 77.808964 
z
" style="fill: #87ceeb; opacity: 0.5"/>
    </g>
    <g id="text_16">
     <!-- OUD -->
     <g transform="translate(127 84.808964) scale(0.1 -0.1)">
      <use xlink:href="#DejaVuSans-4f"/>
      <use xlink:href="#DejaVuSans-55" x="78.710938"/>
      <use xlink:href="#DejaVuSans-44" x="151.904297"/>
     </g>
    </g>
    <g id="patch_25">
     <path d="M 99 99.487089 
L 119 99.487089 
L 119 92.487089 
L 99 92.487089 
z
" style="fill: #fa8072; opacity: 0.5"/>
    </g>
    <g id="text_17">
     <!-- No OUD -->
     <g transform="translate(127 99.487089) scale(0.1 -0.1)">
      <use xlink:href="#DejaVuSans-4e"/>
      <use xlink:href="#DejaVuSans-6f" x="74.804688"/>
      <use xlink:href="#DejaVuSans-20" x="135.986328"/>
      <use xlink:href="#DejaVuSans-4f" x="167.773438"/>
      <use xlink:href="#DejaVuSans-55" x="246.484375"/>
      <use xlink:href="#DejaVuSans-44" x="319.677734"/>
     </g>
    </g>
   </g>
  </g>
  <g id="axes_2">
   <g id="patch_26">
    <path d="M 90 698.475789 
L 648 698.475789 
L 648 465.044211 
L 90 465.044211 
z
" style="fill: #ffffff"/>
   </g>
   <g id="patch_27">
    <path d="M 115.363636 698.475789 
L 129.07371 698.475789 
L 129.07371 494.024662 
L 115.363636 494.024662 
z
" clip-path="url(#p9adfe6b9ef)" style="fill: #87ceeb; opacity: 0.5"/>
   </g>
   <g id="patch_28">
    <path d="M 183.914005 698.475789 
L 197.624079 698.475789 
L 197.624079 476.16 
L 183.914005 476.16 
z
" clip-path="url(#p9adfe6b9ef)" style="fill: #87ceeb; opacity: 0.5"/>
   </g>
   <g id="patch_29">
    <path d="M 252.464373 698.475789 
L 266.174447 698.475789 
L 266.174447 507.125414 
L 252.464373 507.125414 
z
" clip-path="url(#p9adfe6b9ef)" style="fill: #87ceeb; opacity: 0.5"/>
   </g>
   <g id="patch_30">
    <path d="M 321.014742 698.475789 
L 334.724816 698.475789 
L 334.724816 500.773534 
L 321.014742 500.773534 
z
" clip-path="url(#p9adfe6b9ef)" style="fill: #87ceeb; opacity: 0.5"/>
   </g>
   <g id="patch_31">
    <path d="M 389.565111 698.475789 
L 403.275184 698.475789 
L 403.275184 492.436692 
L 389.565111 492.436692 
z
" clip-path="url(#p9adfe6b9ef)" style="fill: #87ceeb; opacity: 0.5"/>
   </g>
   <g id="patch_32">
    <path d="M 458.115479 698.475789 
L 471.825553 698.475789 
L 471.825553 494.818647 
L 458.115479 494.818647 
z
" clip-path="url(#p9adfe6b9ef)" style="fill: #87ceeb; opacity: 0.5"/>
   </g>
   <g id="patch_33">
    <path d="M 526.665848 698.475789 
L 540.375921 698.475789 
L 540.375921 507.125414 
L 526.665848 507.125414 
z
" clip-path="url(#p9adfe6b9ef)" style="fill: #87ceeb; opacity: 0.5"/>
   </g>
   <g id="patch_34">
    <path d="M 595.216216 698.475789 
L 608.92629 698.475789 
L 608.92629 490.451729 
L 595.216216 490.451729 
z
" clip-path="url(#p9adfe6b9ef)" style="fill: #87ceeb; opacity: 0.5"/>
   </g>
   <g id="patch_35">
    <path d="M 129.07371 698.475789 
L 142.783784 698.475789 
L 142.783784 607.564511 
L 129.07371 607.564511 
z
" clip-path="url(#p9adfe6b9ef)" style="fill: #fa8072; opacity: 0.5"/>
   </g>
   <g id="patch_36">
    <path d="M 197.624079 698.475789 
L 211.334152 698.475789 
L 211.334152 601.609624 
L 197.624079 601.609624 
z
" clip-path="url(#p9adfe6b9ef)" style="fill: #fa8072; opacity: 0.5"/>
   </g>
   <g id="patch_37">
    <path d="M 266.174447 698.475789 
L 279.884521 698.475789 
L 279.884521 614.710376 
L 266.174447 614.710376 
z
" clip-path="url(#p9adfe6b9ef)" style="fill: #fa8072; opacity: 0.5"/>
   </g>
   <g id="patch_38">
    <path d="M 334.724816 698.475789 
L 348.434889 698.475789 
L 348.434889 608.755489 
L 334.724816 608.755489 
z
" clip-path="url(#p9adfe6b9ef)" style="fill: #fa8072; opacity: 0.5"/>
   </g>
   <g id="patch_39">
    <path d="M 403.275184 698.475789 
L 416.985258 698.475789 
L 416.985258 615.107368 
L 403.275184 615.107368 
z
" clip-path="url(#p9adfe6b9ef)" style="fill: #fa8072; opacity: 0.5"/>
   </g>
   <g id="patch_40">
    <path d="M 471.825553 698.475789 
L 485.535627 698.475789 
L 485.535627 603.197594 
L 471.825553 603.197594 
z
" clip-path="url(#p9adfe6b9ef)" style="fill: #fa8072; opacity: 0.5"/>
   </g>
   <g id="patch_41">
    <path d="M 540.375921 698.475789 
L 554.085995 698.475789 
L 554.085995 607.961504 
L 540.375921 607.961504 
z
" clip-path="url(#p9adfe6b9ef)" style="fill: #fa8072; opacity: 0.5"/>
   </g>
   <g id="patch_42">
    <path d="M 608.92629 698.475789 
L 622.636364 698.475789 
L 622.636364 607.167519 
L 608.92629 607.167519 
z
" clip-path="url(#p9adfe6b9ef)" style="fill: #fa8072; opacity: 0.5"/>
   </g>
   <g id="matplotlib.axis_3">
    <g id="xtick_9">
     <g id="line2d_19">
      <g>
       <use xlink:href="#mff3641009a" x="129.07371" y="698.475789" style="stroke: #000000; stroke-width: 0.8"/>
      </g>
     </g>
     <g id="text_18">
      <!-- Overall -->
      <g transform="translate(116.252317 742.248878) rotate(-45) scale(0.12 -0.12)">
       <use xlink:href="#DejaVuSans-4f"/>
       <use xlink:href="#DejaVuSans-76" x="78.710938"/>
       <use xlink:href="#DejaVuSans-65" x="137.890625"/>
       <use xlink:href="#DejaVuSans-72" x="199.414062"/>
       <use xlink:href="#DejaVuSans-61" x="240.527344"/>
       <use xlink:href="#DejaVuSans-6c" x="301.806641"/>
       <use xlink:href="#DejaVuSans-6c" x="329.589844"/>
      </g>
     </g>
    </g>
    <g id="xtick_10">
     <g id="line2d_20">
      <g>
       <use xlink:href="#mff3641009a" x="197.624079" y="698.475789" style="stroke: #000000; stroke-width: 0.8"/>
      </g>
     </g>
     <g id="text_19">
      <!-- &lt;45 -->
      <g transform="translate(191.011525 729.831199) rotate(-45) scale(0.12 -0.12)">
       <use xlink:href="#DejaVuSans-3c"/>
       <use xlink:href="#DejaVuSans-34" x="83.789062"/>
       <use xlink:href="#DejaVuSans-35" x="147.412109"/>
      </g>
     </g>
    </g>
    <g id="xtick_11">
     <g id="line2d_21">
      <g>
       <use xlink:href="#mff3641009a" x="266.174447" y="698.475789" style="stroke: #000000; stroke-width: 0.8"/>
      </g>
     </g>
     <g id="text_20">
      <!-- 45-64 -->
      <g transform="translate(256.187669 736.579649) rotate(-45) scale(0.12 -0.12)">
       <use xlink:href="#DejaVuSans-34"/>
       <use xlink:href="#DejaVuSans-35" x="63.623047"/>
       <use xlink:href="#DejaVuSans-2d" x="127.246094"/>
       <use xlink:href="#DejaVuSans-36" x="163.330078"/>
       <use xlink:href="#DejaVuSans-34" x="226.953125"/>
      </g>
     </g>
    </g>
    <g id="xtick_12">
     <g id="line2d_22">
      <g>
       <use xlink:href="#mff3641009a" x="334.724816" y="698.475789" style="stroke: #000000; stroke-width: 0.8"/>
      </g>
     </g>
     <g id="text_21">
      <!-- &gt;=65 -->
      <g transform="translate(324.557062 736.941599) rotate(-45) scale(0.12 -0.12)">
       <use xlink:href="#DejaVuSans-3e"/>
       <use xlink:href="#DejaVuSans-3d" x="83.789062"/>
       <use xlink:href="#DejaVuSans-36" x="167.578125"/>
       <use xlink:href="#DejaVuSans-35" x="231.201172"/>
      </g>
     </g>
    </g>
    <g id="xtick_13">
     <g id="line2d_23">
      <g>
       <use xlink:href="#mff3641009a" x="403.275184" y="698.475789" style="stroke: #000000; stroke-width: 0.8"/>
      </g>
     </g>
     <g id="text_22">
      <!-- Male -->
      <g transform="translate(395.566836 732.022788) rotate(-45) scale(0.12 -0.12)">
       <use xlink:href="#DejaVuSans-4d"/>
       <use xlink:href="#DejaVuSans-61" x="86.279297"/>
       <use xlink:href="#DejaVuSans-6c" x="147.558594"/>
       <use xlink:href="#DejaVuSans-65" x="175.341797"/>
      </g>
     </g>
    </g>
    <g id="xtick_14">
     <g id="line2d_24">
      <g>
       <use xlink:href="#mff3641009a" x="471.825553" y="698.475789" style="stroke: #000000; stroke-width: 0.8"/>
      </g>
     </g>
     <g id="text_23">
      <!-- Female -->
      <g transform="translate(458.827825 742.601547) rotate(-45) scale(0.12 -0.12)">
       <use xlink:href="#DejaVuSans-46"/>
       <use xlink:href="#DejaVuSans-65" x="52.019531"/>
       <use xlink:href="#DejaVuSans-6d" x="113.542969"/>
       <use xlink:href="#DejaVuSans-61" x="210.955078"/>
       <use xlink:href="#DejaVuSans-6c" x="272.234375"/>
       <use xlink:href="#DejaVuSans-65" x="300.017578"/>
      </g>
     </g>
    </g>
    <g id="xtick_15">
     <g id="line2d_25">
      <g>
       <use xlink:href="#mff3641009a" x="540.375921" y="698.475789" style="stroke: #000000; stroke-width: 0.8"/>
      </g>
     </g>
     <g id="text_24">
      <!-- Fully -->
      <g transform="translate(528.202459 744.960853) rotate(-45) scale(0.12 -0.12)">
       <use xlink:href="#DejaVuSans-46"/>
       <use xlink:href="#DejaVuSans-75" x="52.019531"/>
       <use xlink:href="#DejaVuSans-6c" x="115.398438"/>
       <use xlink:href="#DejaVuSans-6c" x="143.181641"/>
       <use xlink:href="#DejaVuSans-79" x="170.964844"/>
      </g>
      <!-- Vaccinated -->
      <g transform="translate(524.194622 767.972008) rotate(-45) scale(0.12 -0.12)">
       <use xlink:href="#DejaVuSans-56"/>
       <use xlink:href="#DejaVuSans-61" x="60.658203"/>
       <use xlink:href="#DejaVuSans-63" x="121.9375"/>
       <use xlink:href="#DejaVuSans-63" x="176.917969"/>
       <use xlink:href="#DejaVuSans-69" x="231.898438"/>
       <use xlink:href="#DejaVuSans-6e" x="259.681641"/>
       <use xlink:href="#DejaVuSans-61" x="323.060547"/>
       <use xlink:href="#DejaVuSans-74" x="384.339844"/>
       <use xlink:href="#DejaVuSans-65" x="423.548828"/>
       <use xlink:href="#DejaVuSans-64" x="485.072266"/>
      </g>
     </g>
    </g>
    <g id="xtick_16">
     <g id="line2d_26">
      <g>
       <use xlink:href="#mff3641009a" x="608.92629" y="698.475789" style="stroke: #000000; stroke-width: 0.8"/>
      </g>
     </g>
     <g id="text_25">
      <!-- Partially -->
      <g transform="translate(589.495261 752.21842) rotate(-45) scale(0.12 -0.12)">
       <use xlink:href="#DejaVuSans-50"/>
       <use xlink:href="#DejaVuSans-61" x="55.802734"/>
       <use xlink:href="#DejaVuSans-72" x="117.082031"/>
       <use xlink:href="#DejaVuSans-74" x="158.195312"/>
       <use xlink:href="#DejaVuSans-69" x="197.404297"/>
       <use xlink:href="#DejaVuSans-61" x="225.1875"/>
       <use xlink:href="#DejaVuSans-6c" x="286.466797"/>
       <use xlink:href="#DejaVuSans-6c" x="314.25"/>
       <use xlink:href="#DejaVuSans-79" x="342.033203"/>
      </g>
      <!-- Vaccinated -->
      <g transform="translate(592.744991 767.972008) rotate(-45) scale(0.12 -0.12)">
       <use xlink:href="#DejaVuSans-56"/>
       <use xlink:href="#DejaVuSans-61" x="60.658203"/>
       <use xlink:href="#DejaVuSans-63" x="121.9375"/>
       <use xlink:href="#DejaVuSans-63" x="176.917969"/>
       <use xlink:href="#DejaVuSans-69" x="231.898438"/>
       <use xlink:href="#DejaVuSans-6e" x="259.681641"/>
       <use xlink:href="#DejaVuSans-61" x="323.060547"/>
       <use xlink:href="#DejaVuSans-74" x="384.339844"/>
       <use xlink:href="#DejaVuSans-65" x="423.548828"/>
       <use xlink:href="#DejaVuSans-64" x="485.072266"/>
      </g>
     </g>
    </g>
   </g>
   <g id="matplotlib.axis_4">
    <g id="ytick_6">
     <g id="line2d_27">
      <path d="M 90 698.475789 
L 648 698.475789 
" clip-path="url(#p9adfe6b9ef)" style="fill: none; stroke: #b0b0b0; stroke-width: 0.8; stroke-linecap: square"/>
     </g>
     <g id="line2d_28">
      <g>
       <use xlink:href="#m2b98c7eedf" x="90" y="698.475789" style="stroke: #000000; stroke-width: 0.8"/>
      </g>
     </g>
     <g id="text_26">
      <!-- 0 -->
      <g transform="translate(74.0925 703.794696) scale(0.14 -0.14)">
       <use xlink:href="#DejaVuSans-30"/>
      </g>
     </g>
    </g>
    <g id="ytick_7">
     <g id="line2d_29">
      <path d="M 90 658.776541 
L 648 658.776541 
" clip-path="url(#p9adfe6b9ef)" style="fill: none; stroke: #b0b0b0; stroke-width: 0.8; stroke-linecap: square"/>
     </g>
     <g id="line2d_30">
      <g>
       <use xlink:href="#m2b98c7eedf" x="90" y="658.776541" style="stroke: #000000; stroke-width: 0.8"/>
      </g>
     </g>
     <g id="text_27">
      <!-- 10 -->
      <g transform="translate(65.185 664.095448) scale(0.14 -0.14)">
       <defs>
        <path id="DejaVuSans-31" d="M 794 531 
L 1825 531 
L 1825 4091 
L 703 3866 
L 703 4441 
L 1819 4666 
L 2450 4666 
L 2450 531 
L 3481 531 
L 3481 0 
L 794 0 
L 794 531 
z
" transform="scale(0.015625)"/>
       </defs>
       <use xlink:href="#DejaVuSans-31"/>
       <use xlink:href="#DejaVuSans-30" x="63.623047"/>
      </g>
     </g>
    </g>
    <g id="ytick_8">
     <g id="line2d_31">
      <path d="M 90 619.077293 
L 648 619.077293 
" clip-path="url(#p9adfe6b9ef)" style="fill: none; stroke: #b0b0b0; stroke-width: 0.8; stroke-linecap: square"/>
     </g>
     <g id="line2d_32">
      <g>
       <use xlink:href="#m2b98c7eedf" x="90" y="619.077293" style="stroke: #000000; stroke-width: 0.8"/>
      </g>
     </g>
     <g id="text_28">
      <!-- 20 -->
      <g transform="translate(65.185 624.396199) scale(0.14 -0.14)">
       <use xlink:href="#DejaVuSans-32"/>
       <use xlink:href="#DejaVuSans-30" x="63.623047"/>
      </g>
     </g>
    </g>
    <g id="ytick_9">
     <g id="line2d_33">
      <path d="M 90 579.378045 
L 648 579.378045 
" clip-path="url(#p9adfe6b9ef)" style="fill: none; stroke: #b0b0b0; stroke-width: 0.8; stroke-linecap: square"/>
     </g>
     <g id="line2d_34">
      <g>
       <use xlink:href="#m2b98c7eedf" x="90" y="579.378045" style="stroke: #000000; stroke-width: 0.8"/>
      </g>
     </g>
     <g id="text_29">
      <!-- 30 -->
      <g transform="translate(65.185 584.696951) scale(0.14 -0.14)">
       <defs>
        <path id="DejaVuSans-33" d="M 2597 2516 
Q 3050 2419 3304 2112 
Q 3559 1806 3559 1356 
Q 3559 666 3084 287 
Q 2609 -91 1734 -91 
Q 1441 -91 1130 -33 
Q 819 25 488 141 
L 488 750 
Q 750 597 1062 519 
Q 1375 441 1716 441 
Q 2309 441 2620 675 
Q 2931 909 2931 1356 
Q 2931 1769 2642 2001 
Q 2353 2234 1838 2234 
L 1294 2234 
L 1294 2753 
L 1863 2753 
Q 2328 2753 2575 2939 
Q 2822 3125 2822 3475 
Q 2822 3834 2567 4026 
Q 2313 4219 1838 4219 
Q 1578 4219 1281 4162 
Q 984 4106 628 3988 
L 628 4550 
Q 988 4650 1302 4700 
Q 1616 4750 1894 4750 
Q 2613 4750 3031 4423 
Q 3450 4097 3450 3541 
Q 3450 3153 3228 2886 
Q 3006 2619 2597 2516 
z
" transform="scale(0.015625)"/>
       </defs>
       <use xlink:href="#DejaVuSans-33"/>
       <use xlink:href="#DejaVuSans-30" x="63.623047"/>
      </g>
     </g>
    </g>
    <g id="ytick_10">
     <g id="line2d_35">
      <path d="M 90 539.678797 
L 648 539.678797 
" clip-path="url(#p9adfe6b9ef)" style="fill: none; stroke: #b0b0b0; stroke-width: 0.8; stroke-linecap: square"/>
     </g>
     <g id="line2d_36">
      <g>
       <use xlink:href="#m2b98c7eedf" x="90" y="539.678797" style="stroke: #000000; stroke-width: 0.8"/>
      </g>
     </g>
     <g id="text_30">
      <!-- 40 -->
      <g transform="translate(65.185 544.997703) scale(0.14 -0.14)">
       <use xlink:href="#DejaVuSans-34"/>
       <use xlink:href="#DejaVuSans-30" x="63.623047"/>
      </g>
     </g>
    </g>
    <g id="ytick_11">
     <g id="line2d_37">
      <path d="M 90 499.979549 
L 648 499.979549 
" clip-path="url(#p9adfe6b9ef)" style="fill: none; stroke: #b0b0b0; stroke-width: 0.8; stroke-linecap: square"/>
     </g>
     <g id="line2d_38">
      <g>
       <use xlink:href="#m2b98c7eedf" x="90" y="499.979549" style="stroke: #000000; stroke-width: 0.8"/>
      </g>
     </g>
     <g id="text_31">
      <!-- 50 -->
      <g transform="translate(65.185 505.298455) scale(0.14 -0.14)">
       <use xlink:href="#DejaVuSans-35"/>
       <use xlink:href="#DejaVuSans-30" x="63.623047"/>
      </g>
     </g>
    </g>
    <g id="text_32">
     <!-- Readmission (%) -->
     <g transform="translate(58.273438 640.407969) rotate(-90) scale(0.14 -0.14)">
      <defs>
       <path id="DejaVuSans-52" d="M 2841 2188 
Q 3044 2119 3236 1894 
Q 3428 1669 3622 1275 
L 4263 0 
L 3584 0 
L 2988 1197 
Q 2756 1666 2539 1819 
Q 2322 1972 1947 1972 
L 1259 1972 
L 1259 0 
L 628 0 
L 628 4666 
L 2053 4666 
Q 2853 4666 3247 4331 
Q 3641 3997 3641 3322 
Q 3641 2881 3436 2590 
Q 3231 2300 2841 2188 
z
M 1259 4147 
L 1259 2491 
L 2053 2491 
Q 2509 2491 2742 2702 
Q 2975 2913 2975 3322 
Q 2975 3731 2742 3939 
Q 2509 4147 2053 4147 
L 1259 4147 
z
" transform="scale(0.015625)"/>
       <path id="DejaVuSans-25" d="M 4653 2053 
Q 4381 2053 4226 1822 
Q 4072 1591 4072 1178 
Q 4072 772 4226 539 
Q 4381 306 4653 306 
Q 4919 306 5073 539 
Q 5228 772 5228 1178 
Q 5228 1588 5073 1820 
Q 4919 2053 4653 2053 
z
M 4653 2450 
Q 5147 2450 5437 2106 
Q 5728 1763 5728 1178 
Q 5728 594 5436 251 
Q 5144 -91 4653 -91 
Q 4153 -91 3862 251 
Q 3572 594 3572 1178 
Q 3572 1766 3864 2108 
Q 4156 2450 4653 2450 
z
M 1428 4353 
Q 1159 4353 1004 4120 
Q 850 3888 850 3481 
Q 850 3069 1003 2837 
Q 1156 2606 1428 2606 
Q 1700 2606 1854 2837 
Q 2009 3069 2009 3481 
Q 2009 3884 1853 4118 
Q 1697 4353 1428 4353 
z
M 4250 4750 
L 4750 4750 
L 1831 -91 
L 1331 -91 
L 4250 4750 
z
M 1428 4750 
Q 1922 4750 2215 4408 
Q 2509 4066 2509 3481 
Q 2509 2891 2217 2550 
Q 1925 2209 1428 2209 
Q 931 2209 642 2551 
Q 353 2894 353 3481 
Q 353 4063 643 4406 
Q 934 4750 1428 4750 
z
" transform="scale(0.015625)"/>
      </defs>
      <use xlink:href="#DejaVuSans-52"/>
      <use xlink:href="#DejaVuSans-65" x="64.982422"/>
      <use xlink:href="#DejaVuSans-61" x="126.505859"/>
      <use xlink:href="#DejaVuSans-64" x="187.785156"/>
      <use xlink:href="#DejaVuSans-6d" x="251.261719"/>
      <use xlink:href="#DejaVuSans-69" x="348.673828"/>
      <use xlink:href="#DejaVuSans-73" x="376.457031"/>
      <use xlink:href="#DejaVuSans-73" x="428.556641"/>
      <use xlink:href="#DejaVuSans-69" x="480.65625"/>
      <use xlink:href="#DejaVuSans-6f" x="508.439453"/>
      <use xlink:href="#DejaVuSans-6e" x="569.621094"/>
      <use xlink:href="#DejaVuSans-20" x="633"/>
      <use xlink:href="#DejaVuSans-28" x="664.787109"/>
      <use xlink:href="#DejaVuSans-25" x="703.800781"/>
      <use xlink:href="#DejaVuSans-29" x="798.820312"/>
     </g>
    </g>
   </g>
   <g id="patch_43">
    <path d="M 90 698.475789 
L 90 465.044211 
" style="fill: none; stroke: #000000; stroke-width: 0.8; stroke-linejoin: miter; stroke-linecap: square"/>
   </g>
   <g id="patch_44">
    <path d="M 648 698.475789 
L 648 465.044211 
" style="fill: none; stroke: #000000; stroke-width: 0.8; stroke-linejoin: miter; stroke-linecap: square"/>
   </g>
   <g id="patch_45">
    <path d="M 90 698.475789 
L 648 698.475789 
" style="fill: none; stroke: #000000; stroke-width: 0.8; stroke-linejoin: miter; stroke-linecap: square"/>
   </g>
   <g id="patch_46">
    <path d="M 90 465.044211 
L 648 465.044211 
" style="fill: none; stroke: #000000; stroke-width: 0.8; stroke-linejoin: miter; stroke-linecap: square"/>
   </g>
   <g id="text_33">
    <!-- Readmission (%) for OUD vs No OUD -->
    <g transform="translate(258.640312 459.044211) scale(0.12 -0.12)">
     <use xlink:href="#DejaVuSans-52"/>
     <use xlink:href="#DejaVuSans-65" x="64.982422"/>
     <use xlink:href="#DejaVuSans-61" x="126.505859"/>
     <use xlink:href="#DejaVuSans-64" x="187.785156"/>
     <use xlink:href="#DejaVuSans-6d" x="251.261719"/>
     <use xlink:href="#DejaVuSans-69" x="348.673828"/>
     <use xlink:href="#DejaVuSans-73" x="376.457031"/>
     <use xlink:href="#DejaVuSans-73" x="428.556641"/>
     <use xlink:href="#DejaVuSans-69" x="480.65625"/>
     <use xlink:href="#DejaVuSans-6f" x="508.439453"/>
     <use xlink:href="#DejaVuSans-6e" x="569.621094"/>
     <use xlink:href="#DejaVuSans-20" x="633"/>
     <use xlink:href="#DejaVuSans-28" x="664.787109"/>
     <use xlink:href="#DejaVuSans-25" x="703.800781"/>
     <use xlink:href="#DejaVuSans-29" x="798.820312"/>
     <use xlink:href="#DejaVuSans-20" x="837.833984"/>
     <use xlink:href="#DejaVuSans-66" x="869.621094"/>
     <use xlink:href="#DejaVuSans-6f" x="904.826172"/>
     <use xlink:href="#DejaVuSans-72" x="966.007812"/>
     <use xlink:href="#DejaVuSans-20" x="1007.121094"/>
     <use xlink:href="#DejaVuSans-4f" x="1038.908203"/>
     <use xlink:href="#DejaVuSans-55" x="1117.619141"/>
     <use xlink:href="#DejaVuSans-44" x="1190.8125"/>
     <use xlink:href="#DejaVuSans-20" x="1267.814453"/>
     <use xlink:href="#DejaVuSans-76" x="1299.601562"/>
     <use xlink:href="#DejaVuSans-73" x="1358.78125"/>
     <use xlink:href="#DejaVuSans-20" x="1410.880859"/>
     <use xlink:href="#DejaVuSans-4e" x="1442.667969"/>
     <use xlink:href="#DejaVuSans-6f" x="1517.472656"/>
     <use xlink:href="#DejaVuSans-20" x="1578.654297"/>
     <use xlink:href="#DejaVuSans-4f" x="1610.441406"/>
     <use xlink:href="#DejaVuSans-55" x="1689.152344"/>
     <use xlink:href="#DejaVuSans-44" x="1762.345703"/>
    </g>
   </g>
  </g>
  <g id="axes_3">
   <g id="patch_47">
    <path d="M 90 1025.28 
L 648 1025.28 
L 648 791.848421 
L 90 791.848421 
z
" style="fill: #ffffff"/>
   </g>
   <g id="patch_48">
    <path d="M 115.363636 1025.28 
L 129.07371 1025.28 
L 129.07371 887.967307 
L 115.363636 887.967307 
z
" clip-path="url(#pa7206bd22f)" style="fill: #87ceeb; opacity: 0.5"/>
   </g>
   <g id="patch_49">
    <path d="M 183.914005 1025.28 
L 197.624079 1025.28 
L 197.624079 955.53387 
L 183.914005 955.53387 
z
" clip-path="url(#pa7206bd22f)" style="fill: #87ceeb; opacity: 0.5"/>
   </g>
   <g id="patch_50">
    <path d="M 252.464373 1025.28 
L 266.174447 1025.28 
L 266.174447 887.967307 
L 252.464373 887.967307 
z
" clip-path="url(#pa7206bd22f)" style="fill: #87ceeb; opacity: 0.5"/>
   </g>
   <g id="patch_51">
    <path d="M 321.014742 1025.28 
L 334.724816 1025.28 
L 334.724816 802.964211 
L 321.014742 802.964211 
z
" clip-path="url(#pa7206bd22f)" style="fill: #87ceeb; opacity: 0.5"/>
   </g>
   <g id="patch_52">
    <path d="M 389.565111 1025.28 
L 403.275184 1025.28 
L 403.275184 918.481238 
L 389.565111 918.481238 
z
" clip-path="url(#pa7206bd22f)" style="fill: #87ceeb; opacity: 0.5"/>
   </g>
   <g id="patch_53">
    <path d="M 458.115479 1025.28 
L 471.825553 1025.28 
L 471.825553 868.351207 
L 458.115479 868.351207 
z
" clip-path="url(#pa7206bd22f)" style="fill: #87ceeb; opacity: 0.5"/>
   </g>
   <g id="patch_54">
    <path d="M 526.665848 1025.28 
L 540.375921 1025.28 
L 540.375921 977.329536 
L 526.665848 977.329536 
z
" clip-path="url(#pa7206bd22f)" style="fill: #87ceeb; opacity: 0.5"/>
   </g>
   <g id="patch_55">
    <path d="M 595.216216 1025.28 
L 608.92629 1025.28 
L 608.92629 863.992074 
L 595.216216 863.992074 
z
" clip-path="url(#pa7206bd22f)" style="fill: #87ceeb; opacity: 0.5"/>
   </g>
   <g id="patch_56">
    <path d="M 129.07371 1025.28 
L 142.783784 1025.28 
L 142.783784 975.149969 
L 129.07371 975.149969 
z
" clip-path="url(#pa7206bd22f)" style="fill: #fa8072; opacity: 0.5"/>
   </g>
   <g id="patch_57">
    <path d="M 197.624079 1025.28 
L 211.334152 1025.28 
L 211.334152 1018.7413 
L 197.624079 1018.7413 
z
" clip-path="url(#pa7206bd22f)" style="fill: #fa8072; opacity: 0.5"/>
   </g>
   <g id="patch_58">
    <path d="M 266.174447 1025.28 
L 279.884521 1025.28 
L 279.884521 990.406935 
L 266.174447 990.406935 
z
" clip-path="url(#pa7206bd22f)" style="fill: #fa8072; opacity: 0.5"/>
   </g>
   <g id="patch_59">
    <path d="M 334.724816 1025.28 
L 348.434889 1025.28 
L 348.434889 896.685573 
L 334.724816 896.685573 
z
" clip-path="url(#pa7206bd22f)" style="fill: #fa8072; opacity: 0.5"/>
   </g>
   <g id="patch_60">
    <path d="M 403.275184 1025.28 
L 416.985258 1025.28 
L 416.985258 946.815604 
L 403.275184 946.815604 
z
" clip-path="url(#pa7206bd22f)" style="fill: #fa8072; opacity: 0.5"/>
   </g>
   <g id="patch_61">
    <path d="M 471.825553 1025.28 
L 485.535627 1025.28 
L 485.535627 992.586502 
L 471.825553 992.586502 
z
" clip-path="url(#pa7206bd22f)" style="fill: #fa8072; opacity: 0.5"/>
   </g>
   <g id="patch_62">
    <path d="M 540.375921 1025.28 
L 554.085995 1025.28 
L 554.085995 1010.023034 
L 540.375921 1010.023034 
z
" clip-path="url(#pa7206bd22f)" style="fill: #fa8072; opacity: 0.5"/>
   </g>
   <g id="patch_63">
    <path d="M 608.92629 1025.28 
L 622.636364 1025.28 
L 622.636364 970.790836 
L 608.92629 970.790836 
z
" clip-path="url(#pa7206bd22f)" style="fill: #fa8072; opacity: 0.5"/>
   </g>
   <g id="matplotlib.axis_5">
    <g id="xtick_17">
     <g id="line2d_39">
      <g>
       <use xlink:href="#mff3641009a" x="129.07371" y="1025.28" style="stroke: #000000; stroke-width: 0.8"/>
      </g>
     </g>
     <g id="text_34">
      <!-- Overall -->
      <g transform="translate(116.252317 1069.053088) rotate(-45) scale(0.12 -0.12)">
       <use xlink:href="#DejaVuSans-4f"/>
       <use xlink:href="#DejaVuSans-76" x="78.710938"/>
       <use xlink:href="#DejaVuSans-65" x="137.890625"/>
       <use xlink:href="#DejaVuSans-72" x="199.414062"/>
       <use xlink:href="#DejaVuSans-61" x="240.527344"/>
       <use xlink:href="#DejaVuSans-6c" x="301.806641"/>
       <use xlink:href="#DejaVuSans-6c" x="329.589844"/>
      </g>
     </g>
    </g>
    <g id="xtick_18">
     <g id="line2d_40">
      <g>
       <use xlink:href="#mff3641009a" x="197.624079" y="1025.28" style="stroke: #000000; stroke-width: 0.8"/>
      </g>
     </g>
     <g id="text_35">
      <!-- &lt;45 -->
      <g transform="translate(191.011525 1056.635409) rotate(-45) scale(0.12 -0.12)">
       <use xlink:href="#DejaVuSans-3c"/>
       <use xlink:href="#DejaVuSans-34" x="83.789062"/>
       <use xlink:href="#DejaVuSans-35" x="147.412109"/>
      </g>
     </g>
    </g>
    <g id="xtick_19">
     <g id="line2d_41">
      <g>
       <use xlink:href="#mff3641009a" x="266.174447" y="1025.28" style="stroke: #000000; stroke-width: 0.8"/>
      </g>
     </g>
     <g id="text_36">
      <!-- 45-64 -->
      <g transform="translate(256.187669 1063.38386) rotate(-45) scale(0.12 -0.12)">
       <use xlink:href="#DejaVuSans-34"/>
       <use xlink:href="#DejaVuSans-35" x="63.623047"/>
       <use xlink:href="#DejaVuSans-2d" x="127.246094"/>
       <use xlink:href="#DejaVuSans-36" x="163.330078"/>
       <use xlink:href="#DejaVuSans-34" x="226.953125"/>
      </g>
     </g>
    </g>
    <g id="xtick_20">
     <g id="line2d_42">
      <g>
       <use xlink:href="#mff3641009a" x="334.724816" y="1025.28" style="stroke: #000000; stroke-width: 0.8"/>
      </g>
     </g>
     <g id="text_37">
      <!-- &gt;=65 -->
      <g transform="translate(324.557062 1063.74581) rotate(-45) scale(0.12 -0.12)">
       <use xlink:href="#DejaVuSans-3e"/>
       <use xlink:href="#DejaVuSans-3d" x="83.789062"/>
       <use xlink:href="#DejaVuSans-36" x="167.578125"/>
       <use xlink:href="#DejaVuSans-35" x="231.201172"/>
      </g>
     </g>
    </g>
    <g id="xtick_21">
     <g id="line2d_43">
      <g>
       <use xlink:href="#mff3641009a" x="403.275184" y="1025.28" style="stroke: #000000; stroke-width: 0.8"/>
      </g>
     </g>
     <g id="text_38">
      <!-- Male -->
      <g transform="translate(395.566836 1058.826998) rotate(-45) scale(0.12 -0.12)">
       <use xlink:href="#DejaVuSans-4d"/>
       <use xlink:href="#DejaVuSans-61" x="86.279297"/>
       <use xlink:href="#DejaVuSans-6c" x="147.558594"/>
       <use xlink:href="#DejaVuSans-65" x="175.341797"/>
      </g>
     </g>
    </g>
    <g id="xtick_22">
     <g id="line2d_44">
      <g>
       <use xlink:href="#mff3641009a" x="471.825553" y="1025.28" style="stroke: #000000; stroke-width: 0.8"/>
      </g>
     </g>
     <g id="text_39">
      <!-- Female -->
      <g transform="translate(458.827825 1069.405758) rotate(-45) scale(0.12 -0.12)">
       <use xlink:href="#DejaVuSans-46"/>
       <use xlink:href="#DejaVuSans-65" x="52.019531"/>
       <use xlink:href="#DejaVuSans-6d" x="113.542969"/>
       <use xlink:href="#DejaVuSans-61" x="210.955078"/>
       <use xlink:href="#DejaVuSans-6c" x="272.234375"/>
       <use xlink:href="#DejaVuSans-65" x="300.017578"/>
      </g>
     </g>
    </g>
    <g id="xtick_23">
     <g id="line2d_45">
      <g>
       <use xlink:href="#mff3641009a" x="540.375921" y="1025.28" style="stroke: #000000; stroke-width: 0.8"/>
      </g>
     </g>
     <g id="text_40">
      <!-- Fully -->
      <g transform="translate(528.202459 1071.765064) rotate(-45) scale(0.12 -0.12)">
       <use xlink:href="#DejaVuSans-46"/>
       <use xlink:href="#DejaVuSans-75" x="52.019531"/>
       <use xlink:href="#DejaVuSans-6c" x="115.398438"/>
       <use xlink:href="#DejaVuSans-6c" x="143.181641"/>
       <use xlink:href="#DejaVuSans-79" x="170.964844"/>
      </g>
      <!-- Vaccinated -->
      <g transform="translate(524.194622 1094.776219) rotate(-45) scale(0.12 -0.12)">
       <use xlink:href="#DejaVuSans-56"/>
       <use xlink:href="#DejaVuSans-61" x="60.658203"/>
       <use xlink:href="#DejaVuSans-63" x="121.9375"/>
       <use xlink:href="#DejaVuSans-63" x="176.917969"/>
       <use xlink:href="#DejaVuSans-69" x="231.898438"/>
       <use xlink:href="#DejaVuSans-6e" x="259.681641"/>
       <use xlink:href="#DejaVuSans-61" x="323.060547"/>
       <use xlink:href="#DejaVuSans-74" x="384.339844"/>
       <use xlink:href="#DejaVuSans-65" x="423.548828"/>
       <use xlink:href="#DejaVuSans-64" x="485.072266"/>
      </g>
     </g>
    </g>
    <g id="xtick_24">
     <g id="line2d_46">
      <g>
       <use xlink:href="#mff3641009a" x="608.92629" y="1025.28" style="stroke: #000000; stroke-width: 0.8"/>
      </g>
     </g>
     <g id="text_41">
      <!-- Partially -->
      <g transform="translate(589.495261 1079.022631) rotate(-45) scale(0.12 -0.12)">
       <use xlink:href="#DejaVuSans-50"/>
       <use xlink:href="#DejaVuSans-61" x="55.802734"/>
       <use xlink:href="#DejaVuSans-72" x="117.082031"/>
       <use xlink:href="#DejaVuSans-74" x="158.195312"/>
       <use xlink:href="#DejaVuSans-69" x="197.404297"/>
       <use xlink:href="#DejaVuSans-61" x="225.1875"/>
       <use xlink:href="#DejaVuSans-6c" x="286.466797"/>
       <use xlink:href="#DejaVuSans-6c" x="314.25"/>
       <use xlink:href="#DejaVuSans-79" x="342.033203"/>
      </g>
      <!-- Vaccinated -->
      <g transform="translate(592.744991 1094.776219) rotate(-45) scale(0.12 -0.12)">
       <use xlink:href="#DejaVuSans-56"/>
       <use xlink:href="#DejaVuSans-61" x="60.658203"/>
       <use xlink:href="#DejaVuSans-63" x="121.9375"/>
       <use xlink:href="#DejaVuSans-63" x="176.917969"/>
       <use xlink:href="#DejaVuSans-69" x="231.898438"/>
       <use xlink:href="#DejaVuSans-6e" x="259.681641"/>
       <use xlink:href="#DejaVuSans-61" x="323.060547"/>
       <use xlink:href="#DejaVuSans-74" x="384.339844"/>
       <use xlink:href="#DejaVuSans-65" x="423.548828"/>
       <use xlink:href="#DejaVuSans-64" x="485.072266"/>
      </g>
     </g>
    </g>
   </g>
   <g id="matplotlib.axis_6">
    <g id="ytick_12">
     <g id="line2d_47">
      <path d="M 90 1025.28 
L 648 1025.28 
" clip-path="url(#pa7206bd22f)" style="fill: none; stroke: #b0b0b0; stroke-width: 0.8; stroke-linecap: square"/>
     </g>
     <g id="line2d_48">
      <g>
       <use xlink:href="#m2b98c7eedf" x="90" y="1025.28" style="stroke: #000000; stroke-width: 0.8"/>
      </g>
     </g>
     <g id="text_42">
      <!-- 0 -->
      <g transform="translate(74.0925 1030.598906) scale(0.14 -0.14)">
       <use xlink:href="#DejaVuSans-30"/>
      </g>
     </g>
    </g>
    <g id="ytick_13">
     <g id="line2d_49">
      <path d="M 90 981.688669 
L 648 981.688669 
" clip-path="url(#pa7206bd22f)" style="fill: none; stroke: #b0b0b0; stroke-width: 0.8; stroke-linecap: square"/>
     </g>
     <g id="line2d_50">
      <g>
       <use xlink:href="#m2b98c7eedf" x="90" y="981.688669" style="stroke: #000000; stroke-width: 0.8"/>
      </g>
     </g>
     <g id="text_43">
      <!-- 2 -->
      <g transform="translate(74.0925 987.007575) scale(0.14 -0.14)">
       <use xlink:href="#DejaVuSans-32"/>
      </g>
     </g>
    </g>
    <g id="ytick_14">
     <g id="line2d_51">
      <path d="M 90 938.097337 
L 648 938.097337 
" clip-path="url(#pa7206bd22f)" style="fill: none; stroke: #b0b0b0; stroke-width: 0.8; stroke-linecap: square"/>
     </g>
     <g id="line2d_52">
      <g>
       <use xlink:href="#m2b98c7eedf" x="90" y="938.097337" style="stroke: #000000; stroke-width: 0.8"/>
      </g>
     </g>
     <g id="text_44">
      <!-- 4 -->
      <g transform="translate(74.0925 943.416244) scale(0.14 -0.14)">
       <use xlink:href="#DejaVuSans-34"/>
      </g>
     </g>
    </g>
    <g id="ytick_15">
     <g id="line2d_53">
      <path d="M 90 894.506006 
L 648 894.506006 
" clip-path="url(#pa7206bd22f)" style="fill: none; stroke: #b0b0b0; stroke-width: 0.8; stroke-linecap: square"/>
     </g>
     <g id="line2d_54">
      <g>
       <use xlink:href="#m2b98c7eedf" x="90" y="894.506006" style="stroke: #000000; stroke-width: 0.8"/>
      </g>
     </g>
     <g id="text_45">
      <!-- 6 -->
      <g transform="translate(74.0925 899.824912) scale(0.14 -0.14)">
       <use xlink:href="#DejaVuSans-36"/>
      </g>
     </g>
    </g>
    <g id="ytick_16">
     <g id="line2d_55">
      <path d="M 90 850.914675 
L 648 850.914675 
" clip-path="url(#pa7206bd22f)" style="fill: none; stroke: #b0b0b0; stroke-width: 0.8; stroke-linecap: square"/>
     </g>
     <g id="line2d_56">
      <g>
       <use xlink:href="#m2b98c7eedf" x="90" y="850.914675" style="stroke: #000000; stroke-width: 0.8"/>
      </g>
     </g>
     <g id="text_46">
      <!-- 8 -->
      <g transform="translate(74.0925 856.233581) scale(0.14 -0.14)">
       <use xlink:href="#DejaVuSans-38"/>
      </g>
     </g>
    </g>
    <g id="ytick_17">
     <g id="line2d_57">
      <path d="M 90 807.323344 
L 648 807.323344 
" clip-path="url(#pa7206bd22f)" style="fill: none; stroke: #b0b0b0; stroke-width: 0.8; stroke-linecap: square"/>
     </g>
     <g id="line2d_58">
      <g>
       <use xlink:href="#m2b98c7eedf" x="90" y="807.323344" style="stroke: #000000; stroke-width: 0.8"/>
      </g>
     </g>
     <g id="text_47">
      <!-- 10 -->
      <g transform="translate(65.185 812.64225) scale(0.14 -0.14)">
       <use xlink:href="#DejaVuSans-31"/>
       <use xlink:href="#DejaVuSans-30" x="63.623047"/>
      </g>
     </g>
    </g>
    <g id="text_48">
     <!-- Death (%) -->
     <g transform="translate(58.273438 944.069523) rotate(-90) scale(0.14 -0.14)">
      <use xlink:href="#DejaVuSans-44"/>
      <use xlink:href="#DejaVuSans-65" x="77.001953"/>
      <use xlink:href="#DejaVuSans-61" x="138.525391"/>
      <use xlink:href="#DejaVuSans-74" x="199.804688"/>
      <use xlink:href="#DejaVuSans-68" x="239.013672"/>
      <use xlink:href="#DejaVuSans-20" x="302.392578"/>
      <use xlink:href="#DejaVuSans-28" x="334.179688"/>
      <use xlink:href="#DejaVuSans-25" x="373.193359"/>
      <use xlink:href="#DejaVuSans-29" x="468.212891"/>
     </g>
    </g>
   </g>
   <g id="patch_64">
    <path d="M 90 1025.28 
L 90 791.848421 
" style="fill: none; stroke: #000000; stroke-width: 0.8; stroke-linejoin: miter; stroke-linecap: square"/>
   </g>
   <g id="patch_65">
    <path d="M 648 1025.28 
L 648 791.848421 
" style="fill: none; stroke: #000000; stroke-width: 0.8; stroke-linejoin: miter; stroke-linecap: square"/>
   </g>
   <g id="patch_66">
    <path d="M 90 1025.28 
L 648 1025.28 
" style="fill: none; stroke: #000000; stroke-width: 0.8; stroke-linejoin: miter; stroke-linecap: square"/>
   </g>
   <g id="patch_67">
    <path d="M 90 791.848421 
L 648 791.848421 
" style="fill: none; stroke: #000000; stroke-width: 0.8; stroke-linejoin: miter; stroke-linecap: square"/>
   </g>
   <g id="text_49">
    <!-- Death (%) for OUD vs No OUD -->
    <g transform="translate(278.476875 785.848421) scale(0.12 -0.12)">
     <use xlink:href="#DejaVuSans-44"/>
     <use xlink:href="#DejaVuSans-65" x="77.001953"/>
     <use xlink:href="#DejaVuSans-61" x="138.525391"/>
     <use xlink:href="#DejaVuSans-74" x="199.804688"/>
     <use xlink:href="#DejaVuSans-68" x="239.013672"/>
     <use xlink:href="#DejaVuSans-20" x="302.392578"/>
     <use xlink:href="#DejaVuSans-28" x="334.179688"/>
     <use xlink:href="#DejaVuSans-25" x="373.193359"/>
     <use xlink:href="#DejaVuSans-29" x="468.212891"/>
     <use xlink:href="#DejaVuSans-20" x="507.226562"/>
     <use xlink:href="#DejaVuSans-66" x="539.013672"/>
     <use xlink:href="#DejaVuSans-6f" x="574.21875"/>
     <use xlink:href="#DejaVuSans-72" x="635.400391"/>
     <use xlink:href="#DejaVuSans-20" x="676.513672"/>
     <use xlink:href="#DejaVuSans-4f" x="708.300781"/>
     <use xlink:href="#DejaVuSans-55" x="787.011719"/>
     <use xlink:href="#DejaVuSans-44" x="860.205078"/>
     <use xlink:href="#DejaVuSans-20" x="937.207031"/>
     <use xlink:href="#DejaVuSans-76" x="968.994141"/>
     <use xlink:href="#DejaVuSans-73" x="1028.173828"/>
     <use xlink:href="#DejaVuSans-20" x="1080.273438"/>
     <use xlink:href="#DejaVuSans-4e" x="1112.060547"/>
     <use xlink:href="#DejaVuSans-6f" x="1186.865234"/>
     <use xlink:href="#DejaVuSans-20" x="1248.046875"/>
     <use xlink:href="#DejaVuSans-4f" x="1279.833984"/>
     <use xlink:href="#DejaVuSans-55" x="1358.544922"/>
     <use xlink:href="#DejaVuSans-44" x="1431.738281"/>
    </g>
   </g>
  </g>
 </g>
 <defs>
  <clipPath id="p4c6321043a">
   <rect x="90" y="138.24" width="558" height="233.431579"/>
  </clipPath>
  <clipPath id="p9adfe6b9ef">
   <rect x="90" y="465.044211" width="558" height="233.431579"/>
  </clipPath>
  <clipPath id="pa7206bd22f">
   <rect x="90" y="791.848421" width="558" height="233.431579"/>
  </clipPath>
 </defs>
</svg>
